<svg xmlns="http://www.w3.org/2000/svg" fill="none" viewBox="0 0 0" height="89" width="89">
<g filter="url(#filter0_dd)">
<circle fill="white" r="24.5" cy="36.5" cx="44.5"></circle>
</g>
<path fill="#FF9090" d="M36.7756 25.4569L45 33.681L53.1906 25.4907C53.3341 25.338 53.507 25.2157 53.6989 25.1314C53.8909 25.0471 54.0978 25.0024 54.3075 25C54.7563 25 55.1867 25.1783 55.5041 25.4956C55.8214 25.813 55.9997 26.2434 55.9997 26.6922C56.0037 26.8997 55.9652 27.1058 55.8866 27.2978C55.808 27.4899 55.691 27.6638 55.5428 27.8091L47.2676 35.9993L55.5428 44.2742C55.8217 44.5471 55.9853 44.9166 55.9997 45.3065C55.9997 45.7553 55.8214 46.1857 55.5041 46.503C55.1867 46.8204 54.7563 46.9987 54.3075 46.9987C54.0918 47.0076 53.8766 46.9716 53.6756 46.893C53.4746 46.8143 53.2921 46.6947 53.1398 46.5418L45 38.3177L36.7925 46.5248C36.6495 46.6725 36.4787 46.7904 36.2899 46.8718C36.1011 46.9531 35.8981 46.9962 35.6925 46.9987C35.2437 46.9987 34.8133 46.8204 34.4959 46.503C34.1786 46.1857 34.0003 45.7553 34.0003 45.3065C33.9963 45.099 34.0348 44.8929 34.1134 44.7008C34.192 44.5088 34.309 44.3348 34.4572 44.1896L42.7324 35.9993L34.4572 27.7244C34.1783 27.4516 34.0147 27.0821 34.0003 26.6922C34.0003 26.2434 34.1786 25.813 34.4959 25.4956C34.8133 25.1783 35.2437 25 35.6925 25C36.0987 25.0051 36.4879 25.1692 36.7756 25.4569Z"></path>
<defs>
<filter color-interpolation-filters="sRGB" filterUnits="userSpaceOnUse" height="89" width="89" y="0" x="0" id="filter0_dd">
<feFlood result="BackgroundImageFix" flood-opacity="0"></feFlood>
<feColorMatrix values="0 0 0 0 0 0 0 0 0 0 0 0 0 0 0 0 0 0 127 0" type="matrix" in="SourceAlpha"></feColorMatrix>
<feMorphology result="effect1_dropShadow" in="SourceAlpha" operator="erode" radius="4"></feMorphology>
<feOffset dy="8"></feOffset>
<feGaussianBlur stdDeviation="12"></feGaussianBlur>
<feColorMatrix values="0 0 0 0 0.0941176 0 0 0 0 0.152941 0 0 0 0 0.294118 0 0 0 0.08 0" type="matrix"></feColorMatrix>
<feBlend result="effect1_dropShadow" in2="BackgroundImageFix" mode="normal"></feBlend>
<feColorMatrix values="0 0 0 0 0 0 0 0 0 0 0 0 0 0 0 0 0 0 127 0" type="matrix" in="SourceAlpha"></feColorMatrix>
<feMorphology result="effect2_dropShadow" in="SourceAlpha" operator="erode" radius="6"></feMorphology>
<feOffset dy="6"></feOffset>
<feGaussianBlur stdDeviation="6"></feGaussianBlur>
<feColorMatrix values="0 0 0 0 0.0941176 0 0 0 0 0.152941 0 0 0 0 0.294118 0 0 0 0.12 0" type="matrix"></feColorMatrix>
<feBlend result="effect2_dropShadow" in2="effect1_dropShadow" mode="normal"></feBlend>
<feBlend result="shape" in2="effect2_dropShadow" in="SourceGraphic" mode="normal"></feBlend>
</filter>
</defs>
</svg>
